<svg width="72" height="24" viewBox="0 0 72 24" fill="none" xmlns="http://www.w3.org/2000/svg">
<path fill-rule="evenodd" clip-rule="evenodd" d="M11.7259 8.9997C10.982 9.55276 10.1843 10.5011 9.96668 11.2699C9.76703 11.9752 9.85915 12.6272 10.2263 13.1077C10.6342 13.5542 11.2594 13.7606 11.9889 13.6891C12.784 13.6112 13.8587 12.9942 14.5349 12.3601L14.535 12.36C14.977 11.9455 15.6487 11.8458 16.3778 12.0864C17.0053 12.2935 17.6444 12.7348 18.1772 13.3291C18.7101 13.9234 19.0847 14.6127 19.2321 15.27C19.4033 16.0338 19.2481 16.7094 18.806 17.124C16.7107 19.0829 14.0226 20.3185 11.6294 20.2755C9.36085 20.2347 7.13463 18.8448 5.51915 17.043C4.03215 15.1338 3.05894 12.6962 3.42083 10.4563C3.80266 8.09342 5.49507 5.66691 7.79439 3.95191C8.2807 3.59028 8.9732 3.55728 9.69455 3.86113C10.3153 4.12272 10.9273 4.61356 11.4178 5.24329C11.9082 5.87303 12.2293 6.58016 12.3219 7.23446C12.4294 7.99469 12.2123 8.63807 11.726 8.99965L11.7259 8.9997ZM8.7401 14.3503C7.86469 13.2264 7.58926 11.8093 8.1386 10.4064C8.38532 9.79443 8.73214 9.19715 9.15215 8.68385C9.4138 8.84176 9.55778 8.88584 9.81526 8.91693C9.33502 9.45142 9.03954 10.2758 8.83791 10.9602C8.53647 12.0251 8.73349 13.0773 9.33649 13.8516C9.99162 14.5823 10.9921 14.9628 12.0936 14.8549C12.8029 14.7777 13.6666 14.6331 14.2777 14.2551C14.2627 14.5141 14.2806 14.6636 14.3896 14.9491C13.81 15.2715 13.1607 15.5069 12.5147 15.6413C11.0366 15.9333 9.69105 15.411 8.7401 14.3503ZM6.38361 16.3203C5.09291 14.6632 4.2662 12.5671 4.57768 10.6394C4.8543 8.9275 5.9921 7.2605 7.46591 5.89031C7.43992 6.11398 7.43796 6.22588 7.49184 6.44325C6.69981 7.28522 5.78824 8.55534 5.35892 9.62038C4.70153 11.2794 4.67584 13.3973 6.72809 16.0322C8.95759 18.519 11.0464 18.8692 12.7956 18.5163C13.9199 18.2825 15.3315 17.6105 16.3005 16.9802C16.5049 17.0717 16.6153 17.0896 16.8401 17.1037C15.2304 18.3113 13.3881 19.1357 11.6543 19.1045C9.70188 19.0694 7.78576 17.8843 6.38361 16.3203ZM8.52804 4.86708C8.91478 4.57106 9.77793 5.04919 10.456 5.93502C11.134 6.82085 11.3701 7.77892 10.9834 8.07494C10.5966 8.37095 9.73347 7.89282 9.05545 7.00699C8.37743 6.12116 8.1413 5.16309 8.52804 4.86708ZM18.0354 16.2397C18.3952 15.9116 18.0776 14.9774 17.326 14.1531C16.5743 13.3288 15.6733 12.9266 15.3134 13.2548C14.9535 13.5829 15.2711 14.5171 16.0228 15.3414C16.7744 16.1657 17.6755 16.5679 18.0354 16.2397ZM7.0594 9.95588C7.35837 9.22179 7.7823 8.52279 8.29378 7.9117C8.1272 7.71778 8.04529 7.60863 7.92714 7.40949C7.92714 7.40949 6.91147 8.74465 6.59545 9.5337C5.81374 11.5377 6.15015 13.6008 7.52507 15.366C9.01872 17.032 10.9893 17.7288 13.1001 17.3147C13.9327 17.1435 15.4267 16.3805 15.4267 16.3805C15.2516 16.229 15.1587 16.129 14.9974 15.9307C14.3053 16.3258 13.5423 16.6191 12.7668 16.7832C10.8822 17.1676 9.11558 16.4337 7.88697 15.0634C6.75606 13.6114 6.34713 11.7425 7.0594 9.95588Z" fill="#FE9C7D"/>
<path d="M31.1967 10.2277C31.3952 10.3717 31.5957 10.5078 31.7866 10.6561C32.8955 11.5154 33.7065 12.5919 34.1917 13.9105C34.4764 14.6969 34.6196 15.5272 34.6149 16.3633C34.6167 17.4357 34.6167 18.5082 34.6149 19.5808C34.6149 19.8202 34.6006 19.8332 34.3521 19.8336H31.319C31.0411 19.8336 31.0363 19.8273 31.0351 19.5413C31.0296 18.3702 31.047 17.1984 31.0121 16.0286C30.9724 14.6914 29.9922 13.4334 28.723 12.999C27.7936 12.6825 26.8865 12.7181 25.9872 13.1125C25.7848 13.2011 25.7093 13.319 25.7113 13.5453C25.7209 15.5451 25.7169 17.5454 25.7165 19.5456C25.7165 19.8273 25.7105 19.8336 25.4275 19.8336C24.4227 19.8336 23.4183 19.8301 22.4134 19.8372C22.2284 19.8372 22.1598 19.7889 22.1602 19.5939C22.1641 13.264 22.1641 6.93418 22.1602 0.604328C22.1602 0.414432 22.2205 0.354299 22.4103 0.355486C23.4147 0.363003 24.4195 0.35865 25.4239 0.359442C25.7018 0.359442 25.7165 0.374871 25.7165 0.649033C25.7165 3.39197 25.7165 6.13569 25.7165 8.88021C25.7165 9.2062 25.7292 9.22519 26.0508 9.18642C27.5074 9.01116 28.5062 8.23694 29.033 6.8784C29.1498 6.57773 29.1918 6.24541 29.2367 5.9218C29.2613 5.74496 29.3248 5.68443 29.4971 5.68443C30.5349 5.68891 31.5727 5.68891 32.6104 5.68443C32.7871 5.68443 32.8351 5.75208 32.8288 5.9218C32.7728 7.44017 32.2837 8.7999 31.3412 9.99664C31.3015 10.0485 31.2618 10.1023 31.2245 10.1549C31.2135 10.1785 31.2042 10.2028 31.1967 10.2277Z" fill="black"/>
<path d="M48.4431 10.0433C48.4431 11.3852 48.5265 12.7335 48.4249 14.0683C48.2458 16.4234 47.0945 18.191 44.9233 19.241C43.8644 19.7553 42.6773 19.9487 41.5091 19.7972C39.3736 19.5357 37.732 18.4917 36.7006 16.5852C36.2339 15.7327 35.9852 14.7787 35.9765 13.8076C35.9606 11.8338 35.9702 9.85972 35.9698 7.886C35.9698 7.24114 35.971 6.59629 35.9733 5.95144C35.9733 5.69785 35.9829 5.68796 36.2441 5.68796C37.262 5.68796 38.2799 5.68796 39.2978 5.68796C39.54 5.68796 39.5491 5.69903 39.5491 5.94906C39.5491 8.08539 39.5324 10.2261 39.5543 12.364C39.5618 13.0144 39.6254 13.6629 39.7444 14.3025C39.8989 15.1333 40.4277 15.7188 41.2002 16.0487C42.2968 16.5175 43.5029 16.1995 44.2516 15.2781C44.5815 14.8714 44.7407 14.3879 44.78 13.8792C44.8411 13.0879 44.8876 12.2908 44.8931 11.496C44.907 9.654 44.8931 7.81162 44.89 5.96924C44.89 5.68835 44.89 5.68716 45.1754 5.68716H48.1497C48.4503 5.68716 48.4507 5.68716 48.4507 5.99614C48.4507 7.34519 48.4507 8.69411 48.4507 10.0429L48.4431 10.0433Z" fill="black"/>
<path d="M50.1383 15.8498C50.1383 14.6728 50.1296 13.4955 50.1419 12.3181C50.1491 11.6289 50.3166 10.9651 50.5548 10.3218C50.9432 9.27012 51.5763 8.32514 52.4021 7.56436C53.2278 6.80358 54.2228 6.24867 55.3053 5.94513C55.8644 5.78578 56.4424 5.70182 57.0239 5.6955C57.1617 5.6955 57.2137 5.74534 57.2133 5.87946C57.2115 6.9252 57.2115 7.97108 57.2133 9.01708C57.2133 9.18403 57.1268 9.22439 56.9791 9.23586C55.6543 9.33991 54.6939 10.0018 54.0611 11.1502C53.7479 11.7183 53.6641 12.3399 53.6641 12.978C53.6641 15.1618 53.6641 17.3456 53.6641 19.5294C53.6641 19.8324 53.6641 19.8328 53.3521 19.8328C52.3596 19.8328 51.3698 19.8285 50.3785 19.8368C50.18 19.8388 50.1161 19.7802 50.1177 19.5796C50.1256 18.3362 50.1217 17.0932 50.1217 15.8502L50.1383 15.8498Z" fill="black"/>
<path d="M58.0541 15.8339C58.0541 14.8868 58.0604 13.9397 58.0541 12.9926C58.0454 12.0166 58.1883 11.0718 58.5539 10.1604C59.0154 8.99383 59.7806 7.97099 60.7708 7.19719C61.4955 6.62447 62.3273 6.20124 63.2179 5.95219C63.7891 5.78762 64.3801 5.70112 64.9746 5.69504C65.1437 5.69504 65.1481 5.79434 65.1477 5.915C65.1477 6.88874 65.1477 7.86222 65.1477 8.83543C65.1477 8.88805 65.1437 8.94106 65.1477 8.99368C65.1604 9.16023 65.0846 9.22393 64.9174 9.23698C63.5927 9.33826 62.6315 9.99894 61.9975 11.1474C61.6839 11.7155 61.5985 12.3366 61.5985 12.9748V19.5246C61.5985 19.8312 61.5985 19.8316 61.2896 19.8316H58.3558C58.0561 19.8316 58.0557 19.8316 58.0557 19.523C58.0544 18.2934 58.0538 17.0637 58.0541 15.8339Z" fill="black"/>
<path d="M67.8416 18.3858H67.0499L67.0656 18.2106H67.7884C67.9073 18.2064 68.0189 18.1824 68.1232 18.1386C68.2275 18.0948 68.3161 18.0312 68.3892 17.9477C68.4643 17.8622 68.5133 17.7589 68.5362 17.638C68.5654 17.4919 68.555 17.3772 68.5049 17.2938C68.457 17.2103 68.3819 17.1519 68.2796 17.1185C68.1774 17.0831 68.0617 17.0643 67.9323 17.0622H67.3628L66.9842 19.4872H66.8152L67.2158 16.8901H67.9323C68.0888 16.8922 68.2306 16.9193 68.3579 16.9715C68.4872 17.0236 68.5842 17.105 68.6489 17.2155C68.7156 17.324 68.7354 17.4659 68.7083 17.6411C68.6916 17.7537 68.652 17.8559 68.5894 17.9477C68.5289 18.0395 68.4517 18.1177 68.3579 18.1824C68.2661 18.245 68.166 18.2898 68.0575 18.317C68.0512 18.319 68.0439 18.3201 68.0356 18.3201C68.0293 18.318 68.0231 18.318 68.0168 18.3201C67.9939 18.3263 67.974 18.3347 67.9574 18.3451C67.9407 18.3555 67.924 18.3649 67.9073 18.3733C67.8906 18.3795 67.8687 18.3837 67.8416 18.3858ZM67.7946 18.3827L67.8478 18.2481C68.0627 18.2565 68.2223 18.317 68.3266 18.4296C68.433 18.5422 68.4716 18.7081 68.4424 18.9271L68.4236 19.0398C68.4152 19.1086 68.4111 19.1754 68.4111 19.24C68.4131 19.3047 68.4142 19.3704 68.4142 19.4372L68.4079 19.4872H68.2264C68.2181 19.4121 68.2171 19.337 68.2233 19.2619C68.2317 19.1868 68.2421 19.1117 68.2546 19.0366L68.2703 18.9303C68.2995 18.7383 68.2734 18.6017 68.192 18.5203C68.1128 18.439 67.9803 18.3931 67.7946 18.3827ZM65.7295 18.2262C65.6857 18.4932 65.6909 18.7561 65.7451 19.0147C65.8014 19.2713 65.9005 19.505 66.0424 19.7156C66.1863 19.9242 66.3688 20.0911 66.59 20.2163C66.8132 20.3394 67.0708 20.4009 67.3628 20.4009C67.657 20.4009 67.9344 20.3415 68.1952 20.2225C68.458 20.1016 68.6937 19.9378 68.9023 19.7313C69.113 19.5248 69.2862 19.2922 69.4217 19.0335C69.5594 18.7728 69.6512 18.5037 69.6971 18.2262C69.7409 17.9592 69.7347 17.6974 69.6783 17.4408C69.6241 17.1842 69.525 16.9527 69.3811 16.7462C69.2392 16.5376 69.0567 16.3717 68.8335 16.2487C68.6124 16.1235 68.3568 16.0609 68.0669 16.0609C67.7727 16.0609 67.4943 16.1204 67.2314 16.2393C66.9686 16.3582 66.7328 16.5198 66.5242 16.7243C66.3156 16.9287 66.1425 17.1603 66.0048 17.4189C65.8671 17.6776 65.7754 17.9467 65.7295 18.2262ZM65.5574 18.2262C65.6033 17.9217 65.6992 17.6296 65.8452 17.3501C65.9913 17.0706 66.1759 16.8213 66.3991 16.6022C66.6244 16.3811 66.8778 16.2069 67.1594 16.0797C67.4431 15.9524 67.7456 15.8888 68.0669 15.8888C68.3819 15.8888 68.6614 15.9545 68.9055 16.0859C69.1495 16.2174 69.3508 16.3947 69.5094 16.6179C69.6679 16.8411 69.7785 17.0914 69.841 17.3689C69.9057 17.6463 69.9161 17.9321 69.8723 18.2262C69.8264 18.5308 69.7305 18.8239 69.5845 19.1055C69.4384 19.385 69.2528 19.6353 69.0275 19.8565C68.8043 20.0776 68.5508 20.2528 68.2671 20.3821C67.9855 20.5094 67.6841 20.573 67.3628 20.573C67.0458 20.573 66.7652 20.5073 66.5211 20.3759C66.2791 20.2424 66.0778 20.064 65.9172 19.8408C65.7587 19.6155 65.6481 19.3631 65.5855 19.0836C65.5229 18.804 65.5136 18.5183 65.5574 18.2262Z" fill="black"/>
</svg>
