<svg width="414" height="44" viewBox="0 0 414 44" fill="none" xmlns="http://www.w3.org/2000/svg">
<path d="M51.0034 19.7231C48.4053 19.7231 46.5542 21.4995 46.5542 23.9316V23.9482C46.5542 26.2227 48.1646 27.8994 50.4639 27.8994C52.1074 27.8994 53.1533 27.061 53.5933 26.1147H53.7593C53.7593 26.2061 53.751 26.2974 53.751 26.3887C53.6597 28.6797 52.8545 30.5391 50.9536 30.5391C49.8994 30.5391 49.1606 29.9912 48.8452 29.1528L48.8203 29.0698H46.7119L46.7285 29.1611C47.1104 30.9956 48.7539 32.2988 50.9536 32.2988C53.9668 32.2988 55.7847 29.9082 55.7847 25.874V25.8574C55.7847 21.541 53.5601 19.7231 51.0034 19.7231ZM50.9951 26.2559C49.6338 26.2559 48.646 25.2598 48.646 23.8735V23.8569C48.646 22.5205 49.7002 21.4663 51.02 21.4663C52.3481 21.4663 53.3857 22.5371 53.3857 23.9067V23.9233C53.3857 25.2764 52.3481 26.2559 50.9951 26.2559ZM58.8732 24.2388C59.6369 24.2388 60.193 23.6577 60.193 22.9272C60.193 22.1885 59.6369 21.6157 58.8732 21.6157C58.1179 21.6157 57.5534 22.1885 57.5534 22.9272C57.5534 23.6577 58.1179 24.2388 58.8732 24.2388ZM58.8732 30.3979C59.6369 30.3979 60.193 29.8252 60.193 29.0864C60.193 28.3477 59.6369 27.7749 58.8732 27.7749C58.1179 27.7749 57.5534 28.3477 57.5534 29.0864C57.5534 29.8252 58.1179 30.3979 58.8732 30.3979ZM67.7723 32H69.8226V29.7007H71.433V27.9326H69.8226V20.022H66.7928C65.1659 22.4956 63.4642 25.2515 61.912 27.9492V29.7007H67.7723V32ZM63.9042 27.9824V27.8579C65.0663 25.8242 66.4525 23.6079 67.681 21.7319H67.8055V27.9824H63.9042ZM75.7168 32H77.8584V20.022H75.7251L72.5957 22.2217V24.2388L75.5757 22.1304H75.7168V32Z" fill="white"/>
<rect x="330.35" y="19" width="3.2" height="12" rx="1" fill="white"/>
<rect x="325.05" y="21.4" width="3.2" height="9.6" rx="1" fill="white"/>
<rect x="319.75" y="24" width="3.2" height="7" rx="1" fill="white"/>
<rect x="314.45" y="26.4" width="3.2" height="4.6" rx="1" fill="white"/>
<path d="M348.008 27.1335C348.711 27.1335 349.395 27.3184 349.997 27.6709L350.241 27.8137C350.426 27.9219 350.458 28.1753 350.307 28.3266L348.223 30.4043C348.095 30.5319 347.888 30.5319 347.76 30.4043L345.69 28.3399C345.539 28.1893 345.57 27.9372 345.754 27.8282L345.995 27.6847C346.603 27.3233 347.295 27.1335 348.008 27.1335Z" fill="white"/>
<path d="M348.008 23.3168C349.758 23.3168 351.438 23.8974 352.806 24.9724L353 25.1243C353.154 25.2455 353.168 25.4737 353.029 25.6121L351.785 26.8525C351.67 26.9673 351.488 26.9804 351.357 26.8835L351.206 26.7708C350.281 26.0838 349.167 25.7152 348.008 25.7152C346.841 25.7152 345.72 26.0883 344.793 26.7833L344.641 26.897C344.511 26.9947 344.328 26.9819 344.212 26.8668L342.969 25.6269C342.831 25.4887 342.844 25.2611 342.997 25.1397L343.19 24.9876C344.561 23.903 346.249 23.3168 348.008 23.3168Z" fill="white"/>
<path d="M348.008 19.5C350.785 19.5 353.441 20.4796 355.543 22.2752L355.723 22.4285C355.868 22.5524 355.876 22.7731 355.741 22.9078L354.501 24.1441C354.381 24.2639 354.189 24.2723 354.059 24.1635L353.906 24.0351C352.25 22.6512 350.176 21.8984 348.008 21.8984C345.833 21.8984 343.752 22.6564 342.094 24.049L341.941 24.178C341.81 24.2873 341.618 24.2791 341.498 24.1591L340.258 22.9229C340.123 22.7885 340.132 22.5681 340.276 22.4441L340.455 22.2908C342.56 20.4855 345.223 19.5 348.008 19.5Z" fill="white"/>
<rect x="364" y="20.5" width="21" height="9" rx="1.33" fill="white"/>
<path opacity="0.4" fill-rule="evenodd" clip-rule="evenodd" d="M367.6 19.5H381.4C382.397 19.5 383.084 19.5008 383.617 19.5444C384.139 19.587 384.425 19.6655 384.635 19.7725C385.105 20.0122 385.488 20.3946 385.728 20.865C385.834 21.0749 385.913 21.3608 385.956 21.8826C385.999 22.4161 386 23.1034 386 24.1V25.9C386 26.8966 385.999 27.5839 385.956 28.1174C385.913 28.6392 385.834 28.9251 385.728 29.135C385.488 29.6054 385.105 29.9878 384.635 30.2275C384.425 30.3345 384.139 30.413 383.617 30.4556C383.084 30.4992 382.397 30.5 381.4 30.5H367.6C366.603 30.5 365.916 30.4992 365.383 30.4556C364.861 30.413 364.575 30.3345 364.365 30.2275C363.895 29.9878 363.512 29.6054 363.272 29.135C363.166 28.9251 363.087 28.6392 363.044 28.1174C363.001 27.5839 363 26.8966 363 25.9V24.1C363 23.1034 363.001 22.4161 363.044 21.8826C363.087 21.3608 363.166 21.0749 363.272 20.865C363.512 20.3946 363.895 20.0122 364.365 19.7725C364.575 19.6655 364.861 19.587 365.383 19.5444C365.916 19.5008 366.603 19.5 367.6 19.5ZM362 24.1C362 22.1398 362 21.1597 362.381 20.411C362.717 19.7525 363.252 19.217 363.911 18.8815C364.66 18.5 365.64 18.5 367.6 18.5H381.4C383.36 18.5 384.34 18.5 385.089 18.8815C385.748 19.217 386.283 19.7525 386.619 20.411C387 21.1597 387 22.1398 387 24.1V25.9C387 27.8602 387 28.8403 386.619 29.589C386.283 30.2475 385.748 30.783 385.089 31.1185C384.34 31.5 383.36 31.5 381.4 31.5H367.6C365.64 31.5 364.66 31.5 363.911 31.1185C363.252 30.783 362.717 30.2475 362.381 29.589C362 28.8403 362 27.8602 362 25.9V24.1ZM388 27C388.828 26.8 389.5 26.1046 389.5 25C389.5 23.8954 388.828 23.2 388 23L388 25L388 27Z" fill="white"/>
</svg>
